<svg data-v-423bf9ae="" xmlns="http://www.w3.org/2000/svg" viewBox="0 0 506 91" class="iconLeft"><!----><!----><!----><g data-v-423bf9ae="" id="4d418917-e52b-4609-8200-09f2ba9eb953" fill="black" transform="matrix(4.175365377719738,0,0,4.175365377719738,88.85582804164372,4.019068398720819)"><path d="M1.23 4.36L1.23 13.34C2.34 13.58 3.91 13.73 5.17 13.73C8.00 13.73 9.83 11.65 9.83 8.94C9.83 5.99 7.46 4.36 4.96 4.36ZM3.79 6.75L4.83 6.75C6.33 6.75 7.21 7.66 7.21 9.08C7.21 10.43 6.62 11.33 5.04 11.33C4.66 11.33 4.20 11.29 3.79 11.17ZM15.48 6.41C14.60 6.41 14.12 7.05 13.69 7.79L13.69 6.55L11.33 6.55L11.33 13.52L13.69 13.52L13.69 9.94C14 9.32 14.49 8.90 15.13 8.90C15.61 8.90 15.93 9.02 16.27 9.23L16.27 6.62C16.04 6.49 15.78 6.41 15.48 6.41ZM19.32 5.48C20.10 5.48 20.79 4.84 20.79 4.06C20.79 3.27 20.10 2.64 19.32 2.64C18.53 2.64 17.86 3.27 17.86 4.06C17.86 4.84 18.53 5.48 19.32 5.48ZM20.56 6.55L17.08 6.55L17.08 8.46L18.21 8.46L18.21 13.52L20.56 13.52ZM26.66 6.34C25.73 6.34 25.13 6.85 24.69 7.45L24.69 6.55L22.34 6.55L22.34 13.52L24.69 13.52L24.69 9.31C24.94 8.94 25.28 8.64 25.79 8.64C26.26 8.64 26.71 8.89 26.71 9.58L26.73 13.52L29.08 13.52L29.08 9.21C29.08 7.33 28.08 6.34 26.66 6.34ZM34.10 11.09L35.48 13.52L38.58 13.52L35.55 9.54L38.35 6.55L35.51 6.55L33.28 9.35L33.28 3.68L30.93 3.68L30.93 13.52L33.28 13.52L33.28 11.96ZM41.43 5.48C42.21 5.48 42.90 4.84 42.90 4.06C42.90 3.27 42.21 2.64 41.43 2.64C40.63 2.64 39.96 3.27 39.96 4.06C39.96 4.84 40.63 5.48 41.43 5.48ZM42.67 6.55L39.18 6.55L39.18 8.46L40.32 8.46L40.32 13.52L42.67 13.52ZM48.77 6.34C47.84 6.34 47.24 6.85 46.80 7.45L46.80 6.55L44.45 6.55L44.45 13.52L46.80 13.52L46.80 9.31C47.04 8.94 47.39 8.64 47.89 8.64C48.37 8.64 48.82 8.89 48.82 9.58L48.84 13.52L51.19 13.52L51.19 9.21C51.19 7.33 50.19 6.34 48.77 6.34ZM53.80 11.32C53.12 11.32 52.57 11.87 52.57 12.55C52.57 13.22 53.12 13.78 53.80 13.78C54.47 13.78 55.03 13.22 55.03 12.55C55.03 11.87 54.47 11.32 53.80 11.32ZM59.14 6.34C57.45 6.34 56 7.67 56 10.02C56 12.55 57.45 13.73 59.01 13.73C60.01 13.73 60.74 13.13 61.09 12.36L61.09 13.33C61.09 14.14 60.25 14.89 59.12 14.89C57.98 14.89 57.26 14.56 56.40 14.19L56.40 16.27C57.33 16.78 58.17 17.01 59.34 17.01C61.48 17.01 63.44 15.53 63.44 13.32L63.44 6.55L61.09 6.55L61.09 7.19C60.63 6.70 59.87 6.34 59.14 6.34ZM59.64 8.64C60.16 8.64 60.68 8.89 61.09 9.21L61.09 9.88C61.09 10.90 60.29 11.35 59.71 11.35C58.95 11.35 58.46 10.77 58.46 10.02C58.46 9.28 58.95 8.64 59.64 8.64ZM68.02 6.34C66.32 6.34 64.87 7.67 64.87 10.02C64.87 12.55 66.32 13.73 67.88 13.73C68.88 13.73 69.62 13.13 69.96 12.36L69.96 13.52L72.31 13.52L72.31 6.55L69.96 6.55L69.96 7.19C69.51 6.70 68.74 6.34 68.02 6.34ZM68.51 8.64C69.03 8.64 69.55 8.89 69.96 9.21L69.96 9.88C69.96 10.90 69.17 11.35 68.58 11.35C67.83 11.35 67.33 10.77 67.33 10.02C67.33 9.28 67.83 8.64 68.51 8.64ZM82.52 6.34C81.62 6.34 80.88 6.89 80.45 7.62C80.04 6.78 79.28 6.34 78.34 6.34C77.41 6.34 77.01 6.85 76.58 7.45L76.58 6.55L74.22 6.55L74.22 13.52L76.58 13.52L76.58 9.31C76.82 8.94 77.08 8.64 77.51 8.64C77.98 8.64 78.39 8.89 78.39 9.58L78.41 13.52L80.76 13.52L80.76 9.27C81.01 8.91 81.28 8.64 81.69 8.64C82.17 8.64 82.58 8.89 82.58 9.58L82.59 13.52L84.94 13.52L84.94 9.21C84.94 7.33 83.95 6.34 82.52 6.34ZM93.39 9.87C93.39 7.72 91.98 6.34 90.02 6.34C87.91 6.34 86.31 8.07 86.31 10.14C86.31 12.36 88.17 13.73 90.15 13.73C91.19 13.73 91.97 13.52 92.45 13.22L92.45 11.21C92.07 11.43 91.34 11.68 90.29 11.68C89.50 11.68 88.84 11.35 88.63 10.65L93.39 10.65ZM88.66 9.34C88.85 8.63 89.33 8.29 89.95 8.29C90.56 8.29 91.16 8.68 91.16 9.34ZM97.13 6.34C95.47 6.34 94.21 7.25 94.21 8.68C94.21 9.65 94.66 10.32 95.69 10.64L96.39 10.86C96.93 11.03 97.23 11.13 97.23 11.39C97.23 11.72 96.99 11.83 96.47 11.83C95.81 11.83 94.90 11.53 94.24 11.12L94.24 12.95C94.87 13.38 95.80 13.73 96.84 13.73C98.33 13.73 99.70 12.77 99.70 11.40C99.70 10.40 99.11 9.76 97.88 9.45L97.45 9.34C96.87 9.19 96.71 9.11 96.71 8.85C96.71 8.48 97.11 8.31 97.55 8.31C98.23 8.31 98.85 8.64 99.33 8.93L99.33 7.08C98.85 6.63 98.03 6.34 97.13 6.34Z"></path></g><!----><g data-v-423bf9ae="" id="f7192b1b-e507-44b7-a265-04ff94a08cc2" transform="matrix(1.0004669189453126,0,0,1.0004669189453126,-13.001846543245485,-4.044357305148154)" stroke="none" fill="black"><path d="M48.63 24.878l1.891-2.23 1.891 2.23c.362.433 8.37 9.946 12.685 18.428 4.602-1.463 10.004-2.45 14.269-3.07-.032-.251-.053-.509-.097-.764-1.158-8.38-6.69-20.413-6.69-20.413s-4.747 3.229-9.507 7.314c-.059-.281-.12-.562-.199-.854a13.287 13.287 0 0 0-.96-2.669C58.553 15.085 50 4.979 50 4.979S41.442 15.085 38.087 22.85c-.41.843-.731 1.736-.96 2.669-.079.292-.146.574-.199.854-4.765-4.086-9.513-7.314-9.513-7.314s-5.532 12.033-6.685 20.413c-.047.254-.067.512-.097.764 4.54.662 10.373 1.739 15.156 3.36 4.28-8.555 12.469-18.276 12.841-18.718z"></path><path d="M79.45 47.219c-4.794.708-10.958 1.874-15.636 3.638-3.828-8.699-13.296-19.891-13.296-19.891s-9.609 11.356-13.382 20.082c-.026.053-.044.105-.067.155-.128-.05-.251-.108-.386-.155-4.73-1.873-11.169-3.097-16.136-3.829-4.317-.638-7.525-.907-7.525-.907s1.235 14.825 4.736 23.661c.342.998.796 1.962 1.358 2.887.503.881 1.042 1.639 1.627 2.218.094.097.19.188.287.275.093.1.178.196.275.29.58.579 1.34 1.121 2.222 1.624a14.728 14.728 0 0 0 2.88 1.358c5.845 2.315 14.295 3.641 19.355 4.273l-.237 1.212-.237 1.217-1.879 9.694h13.183l-1.88-9.691-.239-1.214-.234-1.218c5.061-.633 13.511-1.958 19.35-4.273a14.81 14.81 0 0 0 2.883-1.358c.884-.503 1.643-1.045 2.219-1.624.1-.094.188-.19.275-.29.1-.088.195-.179.292-.275.58-.579 1.118-1.337 1.628-2.218a15.076 15.076 0 0 0 1.357-2.887c3.498-8.836 4.736-23.661 4.736-23.661s-3.208.27-7.529.907z"></path></g><!----></svg>